# xmcd
#
# Track frame offsets:
#	150
#	26112
#	48257
#
# Disc length: 983 seconds
#
# Revision: 0
# Processed by: cddbd v1.5.2PL0 Copyright (c) Steve Scherf et al.
# Submitted via: FairStars CD Ripper 1.52
#
DISCID=1e03d503
DTITLE=Over The Rhine - 3-song sampler
DYEAR=2001
DGENRE=Pop
TTITLE0=The world can wait
TTITLE1=If nothing else
TTITLE2=Latter days
EXTD=
EXTT0=
EXTT1=
EXTT2=
PLAYORDER=
